<svg width="60" height="60" viewBox="0 0 60 60" fill="none" xmlns="http://www.w3.org/2000/svg">
<rect width="60" height="60" rx="4" fill="white" fill-opacity="0.05"/>
<rect x="0.5" y="0.5" width="59" height="59" rx="3.5" stroke="white" stroke-opacity="0.1"/>
<path d="M13.9492 15.4688L16.4102 22.0078L18.8652 15.4688H20.7812V24H19.3047V21.1875L19.4512 17.4258L16.9316 24H15.8711L13.3574 17.4316L13.5039 21.1875V24H12.0273V15.4688H13.9492ZM23.916 24H22.4922V17.6602H23.916V24ZM22.4043 16.0137C22.4043 15.7949 22.4727 15.6133 22.6094 15.4688C22.75 15.3242 22.9492 15.252 23.207 15.252C23.4648 15.252 23.6641 15.3242 23.8047 15.4688C23.9453 15.6133 24.0156 15.7949 24.0156 16.0137C24.0156 16.2285 23.9453 16.4082 23.8047 16.5527C23.6641 16.6934 23.4648 16.7637 23.207 16.7637C22.9492 16.7637 22.75 16.6934 22.6094 16.5527C22.4727 16.4082 22.4043 16.2285 22.4043 16.0137ZM28.791 18.9609C28.6035 18.9297 28.4102 18.9141 28.2109 18.9141C27.5586 18.9141 27.1191 19.1641 26.8926 19.6641V24H25.4688V17.6602H26.8281L26.8633 18.3691C27.207 17.8184 27.6836 17.543 28.293 17.543C28.4961 17.543 28.6641 17.5703 28.7969 17.625L28.791 18.9609ZM33.0098 18.9609C32.8223 18.9297 32.6289 18.9141 32.4297 18.9141C31.7773 18.9141 31.3379 19.1641 31.1113 19.6641V24H29.6875V17.6602H31.0469L31.082 18.3691C31.4258 17.8184 31.9023 17.543 32.5117 17.543C32.7148 17.543 32.8828 17.5703 33.0156 17.625L33.0098 18.9609ZM33.4316 20.7715C33.4316 20.1504 33.5547 19.5918 33.8008 19.0957C34.0469 18.5957 34.3926 18.2129 34.8379 17.9473C35.2832 17.6777 35.7949 17.543 36.373 17.543C37.2285 17.543 37.9219 17.8184 38.4531 18.3691C38.9883 18.9199 39.2773 19.6504 39.3203 20.5605L39.3262 20.8945C39.3262 21.5195 39.2051 22.0781 38.9629 22.5703C38.7246 23.0625 38.3809 23.4434 37.9316 23.7129C37.4863 23.9824 36.9707 24.1172 36.3848 24.1172C35.4902 24.1172 34.7734 23.8203 34.2344 23.2266C33.6992 22.6289 33.4316 21.834 33.4316 20.8418V20.7715ZM34.8555 20.8945C34.8555 21.5469 34.9902 22.0586 35.2598 22.4297C35.5293 22.7969 35.9043 22.9805 36.3848 22.9805C36.8652 22.9805 37.2383 22.793 37.5039 22.418C37.7734 22.043 37.9082 21.4941 37.9082 20.7715C37.9082 20.1309 37.7695 19.623 37.4922 19.248C37.2188 18.873 36.8457 18.6855 36.373 18.6855C35.9082 18.6855 35.5391 18.8711 35.2656 19.2422C34.9922 19.6094 34.8555 20.1602 34.8555 20.8945ZM43.8496 18.9609C43.6621 18.9297 43.4688 18.9141 43.2695 18.9141C42.6172 18.9141 42.1777 19.1641 41.9512 19.6641V24H40.5273V17.6602H41.8867L41.9219 18.3691C42.2656 17.8184 42.7422 17.543 43.3516 17.543C43.5547 17.543 43.7227 17.5703 43.8555 17.625L43.8496 18.9609ZM48.5137 24H47.0957V17.1504L45.0039 17.8652V16.6641L48.332 15.4395H48.5137V24Z" fill="white"/>
<path d="M28.6621 40.3711C28.5189 41.888 27.959 43.0729 26.9824 43.9258C26.0059 44.7721 24.707 45.1953 23.0859 45.1953C21.9531 45.1953 20.9538 44.9284 20.0879 44.3945C19.2285 43.8542 18.5645 43.0892 18.0957 42.0996C17.627 41.11 17.3828 39.9609 17.3633 38.6523V37.3242C17.3633 35.9831 17.6009 34.8014 18.0762 33.7793C18.5514 32.7572 19.2318 31.9694 20.1172 31.416C21.0091 30.8626 22.0378 30.5859 23.2031 30.5859C24.7721 30.5859 26.0352 31.0124 26.9922 31.8652C27.9492 32.7181 28.5059 33.9225 28.6621 35.4785H26.2012C26.084 34.4564 25.7845 33.7207 25.3027 33.2715C24.8275 32.8158 24.1276 32.5879 23.2031 32.5879C22.1289 32.5879 21.3021 32.9818 20.7227 33.7695C20.1497 34.5508 19.8568 35.6999 19.8438 37.2168V38.4766C19.8438 40.013 20.1172 41.1849 20.6641 41.9922C21.2174 42.7995 22.0247 43.2031 23.0859 43.2031C24.056 43.2031 24.7852 42.985 25.2734 42.5488C25.7617 42.1126 26.071 41.3867 26.2012 40.3711H28.6621ZM42.1582 45H39.6875L33.3496 34.9121V45H30.8789V30.7812H33.3496L39.707 40.9082V30.7812H42.1582V45Z" fill="white"/>
</svg>
