<svg width="28" height="22" viewBox="0 0 28 22" fill="none" xmlns="http://www.w3.org/2000/svg">
<mask id="path-1-inside-1_1610_410" fill="white">
<path fill-rule="evenodd" clip-rule="evenodd" d="M2 0C0.895431 0 0 0.89543 0 2V20C0 21.1046 0.895431 22 2 22H26C27.1046 22 28 21.1046 28 20V2C28 0.895431 27.1046 0 26 0H2ZM4.5 6C5.32843 6 6 5.32843 6 4.5C6 3.67157 5.32843 3 4.5 3C3.67157 3 3 3.67157 3 4.5C3 5.32843 3.67157 6 4.5 6ZM10 4.5C10 5.32843 9.32843 6 8.5 6C7.67157 6 7 5.32843 7 4.5C7 3.67157 7.67157 3 8.5 3C9.32843 3 10 3.67157 10 4.5ZM12.5 6C13.3284 6 14 5.32843 14 4.5C14 3.67157 13.3284 3 12.5 3C11.6716 3 11 3.67157 11 4.5C11 5.32843 11.6716 6 12.5 6Z"/>
</mask>
<path fill-rule="evenodd" clip-rule="evenodd" d="M2 0C0.895431 0 0 0.89543 0 2V20C0 21.1046 0.895431 22 2 22H26C27.1046 22 28 21.1046 28 20V2C28 0.895431 27.1046 0 26 0H2ZM4.5 6C5.32843 6 6 5.32843 6 4.5C6 3.67157 5.32843 3 4.5 3C3.67157 3 3 3.67157 3 4.5C3 5.32843 3.67157 6 4.5 6ZM10 4.5C10 5.32843 9.32843 6 8.5 6C7.67157 6 7 5.32843 7 4.5C7 3.67157 7.67157 3 8.5 3C9.32843 3 10 3.67157 10 4.5ZM12.5 6C13.3284 6 14 5.32843 14 4.5C14 3.67157 13.3284 3 12.5 3C11.6716 3 11 3.67157 11 4.5C11 5.32843 11.6716 6 12.5 6Z" fill="white"/>
<path d="M1 2C1 1.44772 1.44771 1 2 1V-1C0.343146 -1 -1 0.343145 -1 2H1ZM1 20V2H-1V20H1ZM2 21C1.44772 21 1 20.5523 1 20H-1C-1 21.6569 0.343147 23 2 23V21ZM26 21H2V23H26V21ZM27 20C27 20.5523 26.5523 21 26 21V23C27.6569 23 29 21.6569 29 20H27ZM27 2V20H29V2H27ZM26 1C26.5523 1 27 1.44772 27 2H29C29 0.343145 27.6569 -1 26 -1V1ZM2 1H26V-1H2V1ZM5 4.5C5 4.77614 4.77614 5 4.5 5V7C5.88071 7 7 5.88071 7 4.5H5ZM4.5 4C4.77614 4 5 4.22386 5 4.5H7C7 3.11929 5.88071 2 4.5 2V4ZM4 4.5C4 4.22386 4.22386 4 4.5 4V2C3.11929 2 2 3.11929 2 4.5H4ZM4.5 5C4.22386 5 4 4.77614 4 4.5H2C2 5.88071 3.11929 7 4.5 7V5ZM8.5 7C9.88071 7 11 5.88071 11 4.5H9C9 4.77614 8.77614 5 8.5 5V7ZM6 4.5C6 5.88071 7.11929 7 8.5 7V5C8.22386 5 8 4.77614 8 4.5H6ZM8.5 2C7.11929 2 6 3.11929 6 4.5H8C8 4.22386 8.22386 4 8.5 4V2ZM11 4.5C11 3.11929 9.88071 2 8.5 2V4C8.77614 4 9 4.22386 9 4.5H11ZM13 4.5C13 4.77614 12.7761 5 12.5 5V7C13.8807 7 15 5.88071 15 4.5H13ZM12.5 4C12.7761 4 13 4.22386 13 4.5H15C15 3.11929 13.8807 2 12.5 2V4ZM12 4.5C12 4.22386 12.2239 4 12.5 4V2C11.1193 2 10 3.11929 10 4.5H12ZM12.5 5C12.2239 5 12 4.77614 12 4.5H10C10 5.88071 11.1193 7 12.5 7V5Z" fill="white" mask="url(#path-1-inside-1_1610_410)"/>
<path d="M1 2C1 1.44772 1.44771 1 2 1V-1C0.343146 -1 -1 0.343145 -1 2H1ZM1 20V2H-1V20H1ZM2 21C1.44772 21 1 20.5523 1 20H-1C-1 21.6569 0.343147 23 2 23V21ZM26 21H2V23H26V21ZM27 20C27 20.5523 26.5523 21 26 21V23C27.6569 23 29 21.6569 29 20H27ZM27 2V20H29V2H27ZM26 1C26.5523 1 27 1.44772 27 2H29C29 0.343145 27.6569 -1 26 -1V1ZM2 1H26V-1H2V1ZM5 4.5C5 4.77614 4.77614 5 4.5 5V7C5.88071 7 7 5.88071 7 4.5H5ZM4.5 4C4.77614 4 5 4.22386 5 4.5H7C7 3.11929 5.88071 2 4.5 2V4ZM4 4.5C4 4.22386 4.22386 4 4.5 4V2C3.11929 2 2 3.11929 2 4.5H4ZM4.5 5C4.22386 5 4 4.77614 4 4.5H2C2 5.88071 3.11929 7 4.5 7V5ZM8.5 7C9.88071 7 11 5.88071 11 4.5H9C9 4.77614 8.77614 5 8.5 5V7ZM6 4.5C6 5.88071 7.11929 7 8.5 7V5C8.22386 5 8 4.77614 8 4.5H6ZM8.5 2C7.11929 2 6 3.11929 6 4.5H8C8 4.22386 8.22386 4 8.5 4V2ZM11 4.5C11 3.11929 9.88071 2 8.5 2V4C8.77614 4 9 4.22386 9 4.5H11ZM13 4.5C13 4.77614 12.7761 5 12.5 5V7C13.8807 7 15 5.88071 15 4.5H13ZM12.5 4C12.7761 4 13 4.22386 13 4.5H15C15 3.11929 13.8807 2 12.5 2V4ZM12 4.5C12 4.22386 12.2239 4 12.5 4V2C11.1193 2 10 3.11929 10 4.5H12ZM12.5 5C12.2239 5 12 4.77614 12 4.5H10C10 5.88071 11.1193 7 12.5 7V5Z" fill="white" mask="url(#path-1-inside-1_1610_410)"/>
<path d="M1 2C1 1.44772 1.44771 1 2 1V-1C0.343146 -1 -1 0.343145 -1 2H1ZM1 20V2H-1V20H1ZM2 21C1.44772 21 1 20.5523 1 20H-1C-1 21.6569 0.343147 23 2 23V21ZM26 21H2V23H26V21ZM27 20C27 20.5523 26.5523 21 26 21V23C27.6569 23 29 21.6569 29 20H27ZM27 2V20H29V2H27ZM26 1C26.5523 1 27 1.44772 27 2H29C29 0.343145 27.6569 -1 26 -1V1ZM2 1H26V-1H2V1ZM5 4.5C5 4.77614 4.77614 5 4.5 5V7C5.88071 7 7 5.88071 7 4.5H5ZM4.5 4C4.77614 4 5 4.22386 5 4.5H7C7 3.11929 5.88071 2 4.5 2V4ZM4 4.5C4 4.22386 4.22386 4 4.5 4V2C3.11929 2 2 3.11929 2 4.5H4ZM4.5 5C4.22386 5 4 4.77614 4 4.5H2C2 5.88071 3.11929 7 4.5 7V5ZM8.5 7C9.88071 7 11 5.88071 11 4.5H9C9 4.77614 8.77614 5 8.5 5V7ZM6 4.5C6 5.88071 7.11929 7 8.5 7V5C8.22386 5 8 4.77614 8 4.5H6ZM8.5 2C7.11929 2 6 3.11929 6 4.5H8C8 4.22386 8.22386 4 8.5 4V2ZM11 4.5C11 3.11929 9.88071 2 8.5 2V4C8.77614 4 9 4.22386 9 4.5H11ZM13 4.5C13 4.77614 12.7761 5 12.5 5V7C13.8807 7 15 5.88071 15 4.5H13ZM12.5 4C12.7761 4 13 4.22386 13 4.5H15C15 3.11929 13.8807 2 12.5 2V4ZM12 4.5C12 4.22386 12.2239 4 12.5 4V2C11.1193 2 10 3.11929 10 4.5H12ZM12.5 5C12.2239 5 12 4.77614 12 4.5H10C10 5.88071 11.1193 7 12.5 7V5Z" fill="white" mask="url(#path-1-inside-1_1610_410)"/>
</svg>
