<svg width="32" height="32" viewBox="0 0 32 32" fill="none" xmlns="http://www.w3.org/2000/svg">
<path d="M27.1094 25.1749C26.9656 24.7468 25.7156 24.2093 25.3219 23.3499C24.9281 22.4906 25.25 22.0281 24.6438 21.5968C24.5625 21.5374 24.4719 21.5031 24.375 21.4812C24.5875 20.9187 24.5938 20.1499 24.5656 19.1374C24.4938 16.4906 23.3375 14.9031 22.7156 14.1281C21.9719 13.1999 21.7156 12.8499 21.1438 11.9499C20.5906 11.0812 20.0031 10.0124 19.9844 8.86244C19.9594 7.50306 19.9125 5.94056 19.2688 4.76244C18.625 3.58431 17.025 2.42181 14.7625 3.04681C12.3438 3.71556 12.2844 5.74994 12.1781 7.25306C12.0719 8.75619 12.7563 9.82494 12.1813 11.7249C11.6063 13.6249 10.6063 14.3312 10.125 15.2843C8.93439 17.6437 8.68126 17.8531 8.15939 19.0687C7.58126 20.4093 8.01564 21.2031 8.01564 21.2031L8.04064 21.2687C7.83439 21.6499 7.72501 22.0312 7.48126 22.1343C6.99376 22.3406 5.83751 22.0281 5.44376 22.4218C5.05001 22.8156 5.63439 25.1999 5.37189 25.6406C5.10939 26.0812 4.87189 26.0687 4.87189 26.7843C4.87189 27.4999 5.65939 27.4281 8.73439 28.4656C11.8094 29.5031 12.3813 29.2156 13.0969 28.3218C13.2156 28.1749 13.2906 28.0124 13.3344 27.8406C14.275 27.7562 15.225 27.6812 15.7781 27.6781C17.0063 27.6718 18.725 28.0593 19.525 28.2562C19.6406 28.5656 19.8094 28.8156 20.0344 28.9312C20.6781 29.2531 22.1813 29.2187 23.075 28.3593C23.9688 27.4999 26.2219 26.3937 26.5094 26.1062C26.7969 25.8187 27.25 25.6031 27.1094 25.1749ZM14.2375 8.67494C14.2031 8.26869 13.9813 7.95931 13.7406 7.97806C13.5 7.99681 13.3313 8.34369 13.3656 8.74681C13.3844 8.97181 13.4625 9.16869 13.5688 9.29369C13.5313 9.32806 13.4969 9.35931 13.4625 9.39056C13.2875 9.16244 13.1406 8.79681 13.1031 8.34994C13.0375 7.57806 13.3375 6.97181 13.65 6.94681H13.6719V6.71556V6.94681C13.975 6.94681 14.3594 7.47807 14.4219 8.24056C14.4344 8.40307 14.4313 8.55619 14.4188 8.69994C14.3594 8.72494 14.3 8.75306 14.2438 8.78119C14.2406 8.74994 14.2406 8.71244 14.2375 8.67494ZM13.7938 9.09369C13.7938 9.09681 13.7938 9.09681 13.7938 9.09369C13.7938 9.09681 13.7938 9.09681 13.7938 9.09369ZM13.7156 9.16244L13.7125 9.16556L13.7156 9.16244ZM13.6406 9.23119L13.6375 9.23431C13.6375 9.23119 13.6375 9.23119 13.6406 9.23119ZM13.3406 9.49681C13.3594 9.48119 13.375 9.46556 13.3938 9.44994C13.375 9.46869 13.3594 9.48431 13.3406 9.49681ZM13.4031 9.44369C13.4219 9.42807 13.4406 9.40932 13.4594 9.39369C13.4406 9.41244 13.4219 9.42807 13.4031 9.44369ZM13.9156 10.1812C13.9938 10.1156 14.0688 10.0468 14.1406 9.98119C14.475 9.67494 14.7 9.48744 15 9.47494C15.0344 9.47182 15.0688 9.47182 15.1031 9.47182C15.6125 9.47182 16.1281 9.65307 16.8281 10.0843C16.8906 10.1218 16.95 10.1562 17.0063 10.1906C16.85 10.3312 16.6625 10.4937 16.4469 10.6687C15.95 11.0718 15.5813 11.3218 15.3906 11.4281C15.25 11.3656 14.9938 11.2249 14.6125 10.9624C14.1969 10.6749 13.8781 10.4062 13.7969 10.3249C13.8281 10.2749 13.8688 10.2218 13.9156 10.1812ZM16.9156 9.09994C16.9313 9.10931 16.95 9.11869 16.9656 9.12807C16.95 9.11869 16.9344 9.10931 16.9156 9.09994ZM16.9688 7.91244C16.6688 7.89681 16.3844 8.21869 16.3344 8.63119C16.325 8.69682 16.325 8.76244 16.3313 8.82181C16.2156 8.77494 16.1 8.73744 15.9875 8.70306C15.975 8.56556 15.975 8.42181 15.9938 8.27806C16.0375 7.90306 16.1844 7.55306 16.4 7.29994C16.5938 7.07494 16.8188 6.94994 17.0344 6.94994H17.0656C17.2281 6.95931 17.375 7.03744 17.4969 7.18431C17.7188 7.44681 17.8188 7.87494 17.7656 8.32806C17.7219 8.70306 17.575 9.05306 17.3594 9.30619C17.35 9.31556 17.3406 9.32806 17.3313 9.33744L17.3031 9.31869C17.2594 9.29057 17.2156 9.26556 17.1719 9.24057C17.3031 9.10931 17.3969 8.91244 17.425 8.68744C17.4688 8.27494 17.2688 7.92806 16.9688 7.91244ZM17.0938 9.19994C17.075 9.19056 17.0563 9.17806 17.0375 9.16869C17.0594 9.17806 17.0781 9.18744 17.0938 9.19994ZM16.6625 8.96869C16.65 8.96244 16.6344 8.95619 16.6219 8.94994C16.6344 8.95619 16.6469 8.96244 16.6625 8.96869ZM16.5406 8.91244C16.5281 8.90619 16.5188 8.90307 16.5063 8.89682C16.5188 8.90307 16.5313 8.90932 16.5406 8.91244ZM15.8031 8.65931C15.8063 8.65931 15.8094 8.66244 15.8156 8.66244C15.8094 8.65932 15.8063 8.65931 15.8031 8.65931ZM17.4125 9.38744C17.3844 9.37181 17.3563 9.35306 17.3281 9.33744C17.3563 9.35619 17.3844 9.37181 17.4125 9.38744ZM17.625 9.50931C17.6094 9.49994 17.5906 9.49056 17.5719 9.48119C17.5906 9.49056 17.6063 9.49994 17.625 9.50931ZM17.5656 9.47806C17.5438 9.46556 17.5188 9.44994 17.4938 9.43744C17.5188 9.44994 17.5438 9.46556 17.5656 9.47806ZM17.4906 9.43431C17.4656 9.41869 17.4406 9.40306 17.4125 9.38744C17.4406 9.40306 17.4656 9.41869 17.4906 9.43431ZM18.5125 25.3406C17.95 25.8531 17.5188 26.0656 17.2031 26.2656C16.6125 26.6406 15.6594 26.8687 14.6688 26.7187C14.0406 26.6249 13.4781 26.3624 12.9844 26.0656C12.8656 25.8343 12.7469 25.6468 12.6594 25.5343C12.4406 25.2437 10.9531 23.1406 10.0219 21.8281C9.97189 21.5593 9.94689 21.2968 9.95001 21.0468C9.96876 19.5093 10.3969 17.7124 10.7469 17.2906C10.8531 17.1624 11.6344 14.9374 11.8188 14.4656C12.1594 13.6062 12.6844 12.5968 12.9594 12.0062C13.1469 11.5187 13.175 11.1781 13.15 10.9468C13.4594 11.2687 14.9094 12.3624 15.4281 12.3624H15.4375C15.8688 12.3531 17.5219 11.0062 18.0875 10.3874C18.1406 10.6124 18.4188 11.0593 18.5969 11.4906C19.1156 12.7468 19.7188 15.0968 20.6844 16.3999C20.75 16.4906 20.9125 16.7968 20.9438 16.9156C21.3188 18.2624 21.2438 19.2812 21.0125 21.2812C20.9094 21.2468 20.7906 21.2187 20.6344 21.2062C19.975 21.1531 19.7406 21.4218 19.7406 21.4218C19.7406 21.4218 19.7031 22.9031 19.6313 24.2749C19.575 24.3374 19.5156 24.3999 19.4563 24.4624C19.1188 24.7999 18.8063 25.0906 18.5125 25.3406Z" fill="white"/>
</svg>
