<svg width="32" height="32" viewBox="0 0 32 32" fill="none" xmlns="http://www.w3.org/2000/svg">
<path d="M23.2921 16.8904C23.3061 15.8172 23.5951 14.7649 24.1323 13.8314C24.6695 12.898 25.4374 12.1137 26.3645 11.5516C25.7755 10.722 24.9985 10.0393 24.0953 9.55774C23.192 9.07613 22.1873 8.80888 21.161 8.77721C18.9716 8.55056 16.8492 10.0692 15.7335 10.0692C14.5963 10.0692 12.8786 8.79971 11.0289 8.83724C9.8325 8.87536 8.66649 9.21849 7.64451 9.83319C6.62252 10.4479 5.77941 11.3132 5.19733 12.3448C2.67592 16.6502 4.55667 22.9778 6.97201 26.4581C8.18046 28.1622 9.59278 30.0658 11.4408 29.9983C13.2492 29.9243 13.9246 28.861 16.1075 28.861C18.2701 28.861 18.9037 29.9983 20.7893 29.9554C22.7297 29.9243 23.9523 28.2437 25.1184 26.5234C25.9867 25.3091 26.6548 23.9671 27.0981 22.547C25.9707 22.0767 25.0086 21.2895 24.3318 20.2836C23.655 19.2777 23.2934 18.0976 23.2921 16.8904Z" fill="white"/>
<path d="M19.7307 6.48832C20.7887 5.23566 21.31 3.62558 21.1838 2C19.5673 2.16744 18.0742 2.92936 17.0019 4.13396C16.4776 4.72243 16.076 5.40705 15.8202 6.14867C15.5643 6.8903 15.4592 7.67438 15.5107 8.4561C16.3193 8.46431 17.1191 8.29148 17.8501 7.95063C18.581 7.60977 19.2241 7.10979 19.7307 6.48832Z" fill="white"/>
</svg>
