<svg width="24" height="24" viewBox="0 0 24 24" fill="none" xmlns="http://www.w3.org/2000/svg">
<circle cx="12" cy="12" r="12" fill="#FFEB34"/>
<g clip-path="url(#clip0_1701_1818)">
<path d="M12.8033 19.7393C11.5067 19.7393 10.3475 19.4531 9.32549 18.8806C8.30352 18.3081 7.49509 17.4945 6.91546 16.4399C6.33583 15.3853 6.04602 14.1498 6.04602 12.7186C6.04602 11.2873 6.33583 10.0519 6.91546 8.99729C7.49509 7.94267 8.30352 7.12911 9.32549 6.5566C10.3475 5.98409 11.522 5.69784 12.8338 5.69784C14.1455 5.69784 15.3048 5.98409 16.3268 6.5566C17.3335 7.12911 18.1267 7.94267 18.7063 8.99729C19.2859 10.0519 19.5757 11.2873 19.5757 12.7186C19.5757 14.1498 19.2859 15.3853 18.7063 16.4399C18.1267 17.4945 17.3182 18.3081 16.3115 18.8806C15.2743 19.4531 14.115 19.7393 12.8033 19.7393ZM12.8033 17.0124C13.4897 17.0124 14.1303 16.8617 14.7252 16.5453C15.3048 16.244 15.7777 15.7619 16.1285 15.1291C16.4793 14.4964 16.6623 13.6828 16.6623 12.7035C16.6623 11.7092 16.4793 10.8956 16.1285 10.2628C15.7777 9.63006 15.3048 9.16301 14.7252 8.86169C14.1455 8.56037 13.5202 8.39465 12.8185 8.39465C12.1321 8.39465 11.4915 8.54531 10.8966 8.86169C10.317 9.16301 9.8441 9.63006 9.49328 10.2628C9.14245 10.8956 8.95941 11.7092 8.95941 12.7035C8.95941 14.18 9.34074 15.2647 10.0882 15.9578C10.8508 16.6659 11.7508 17.0124 12.8033 17.0124Z" fill="#3E3E3E" stroke="#3E3E3E" stroke-width="0.993976" stroke-miterlimit="10"/>
<path d="M11.3084 18.8808C10.0118 18.8808 8.85259 18.5945 7.83062 18.022C6.80864 17.4495 6.00022 16.636 5.42059 15.5813C4.84096 14.5267 4.55115 13.2913 4.55115 11.86C4.55115 10.4288 4.84096 9.19337 5.42059 8.13875C6.00022 7.08413 6.80864 6.27057 7.83062 5.69806C8.85259 5.12555 10.0271 4.8393 11.3389 4.8393C12.6507 4.8393 13.8099 5.12555 14.8319 5.69806C15.8386 6.27057 16.6318 7.08413 17.2114 8.13875C17.7911 9.19337 18.0809 10.4288 18.0809 11.86C18.0809 13.2913 17.7911 14.5267 17.2114 15.5813C16.6318 16.636 15.8234 17.4495 14.8166 18.022C13.7794 18.5795 12.6202 18.8808 11.3084 18.8808ZM11.3084 16.1388C11.9948 16.1388 12.6354 15.9881 13.2303 15.6717C13.8099 15.3704 14.2828 14.8883 14.6336 14.2555C14.9844 13.6228 15.1675 12.8092 15.1675 11.8299C15.1675 10.8356 14.9844 10.022 14.6336 9.38922C14.2828 8.75645 13.8099 8.28941 13.2303 7.98809C12.6659 7.70183 12.0253 7.55117 11.3389 7.55117C10.6525 7.55117 10.0118 7.70183 9.41696 8.01822C8.83734 8.31954 8.36448 8.78658 8.01366 9.41936C7.66283 10.0521 7.47979 10.8657 7.47979 11.86C7.47979 13.3365 7.86112 14.4213 8.60854 15.1143C9.3712 15.7923 10.2712 16.1388 11.3084 16.1388Z" fill="#617AFF" stroke="#3E3E3E" stroke-width="0.993976" stroke-miterlimit="10"/>
<path d="M6.00024 9.90132L8.63907 6.85799L12.0863 6.46627L14.8929 8.96723L16.2962 11.423L15.8386 14.9032L14.0082 16.7714L10.6678 17.3138L7.44931 15.0087L6.00024 9.90132Z" fill="#617AFF"/>
<path d="M11.1559 13.6075C12.3456 13.6075 13.2913 12.6583 13.2913 11.4982C13.2913 10.3381 12.3304 9.38899 11.1559 9.38899C9.98135 9.38899 9.02039 10.3381 9.02039 11.4982C9.02039 12.6583 9.96609 13.6075 11.1559 13.6075Z" fill="#3E3E3E" stroke="#3E3E3E" stroke-width="0.780867" stroke-miterlimit="10"/>
<path d="M15.4422 8.33443L17.4557 6.34572C17.8523 5.954 17.776 5.2459 17.2879 4.76379C16.7998 4.28168 16.0829 4.20635 15.6863 4.59806L13.6729 6.58677C13.2763 6.97849 13.3525 7.68659 13.8406 8.1687C14.3288 8.65081 15.0457 8.72614 15.4422 8.33443Z" fill="white" stroke="#3E3E3E" stroke-width="0.993976" stroke-miterlimit="10"/>
</g>
<defs>
<clipPath id="clip0_1701_1818">
<rect width="16" height="16.3855" fill="white" transform="translate(4.04822 3.85542)"/>
</clipPath>
</defs>
</svg>
