<svg width="182" height="60" viewBox="0 0 182 60" fill="none" xmlns="http://www.w3.org/2000/svg">
<g clip-path="url(#clip0)">
<path d="M167.507 7.29297e-05H14.5015C13.9438 7.29297e-05 13.3928 7.29298e-05 12.8365 0.00307293C12.3709 0.00607293 11.909 0.0147879 11.4389 0.0221229C10.4176 0.0339756 9.39871 0.122587 8.39109 0.287188C7.38488 0.455372 6.4102 0.772446 5.5 1.22769C4.59091 1.68678 3.76025 2.28332 3.03815 2.99568C2.31227 3.70603 1.70718 4.5271 1.24617 5.42731C0.783885 6.32574 0.463335 7.28848 0.295592 8.28229C0.126253 9.27485 0.0351309 10.2789 0.023042 11.2853C0.00892783 11.7452 0.00743732 12.2066 0 12.6666V47.338C0.00743732 47.8037 0.00892783 48.2549 0.023042 48.7208C0.0351346 49.7272 0.126257 50.7312 0.295592 51.7237C0.462872 52.7181 0.783441 53.6814 1.24617 54.5801C1.70697 55.4774 2.31214 56.2952 3.03815 57.0016C3.75751 57.7171 4.58871 58.314 5.5 58.7696C6.41019 59.2261 7.38477 59.545 8.39109 59.7158C9.39888 59.8791 10.4177 59.9678 11.4389 59.981C11.909 59.9912 12.3709 59.9971 12.8365 59.9971C13.3928 60.0001 13.9438 60.0001 14.5015 60.0001H167.507C168.053 60.0001 168.609 60.0001 169.155 59.9971C169.619 59.9971 170.094 59.9912 170.557 59.981C171.577 59.9685 172.594 59.8798 173.599 59.7158C174.609 59.5438 175.587 59.225 176.502 58.7696C177.412 58.3138 178.242 57.7168 178.961 57.0016C179.685 56.2924 180.292 55.4753 180.758 54.5801C181.218 53.6807 181.535 52.7175 181.7 51.7237C181.87 50.731 181.964 49.7273 181.982 48.7208C181.988 48.2549 181.988 47.8037 181.988 47.338C182 46.793 182 46.2511 182 45.6973V14.3043C182 13.755 182 13.21 181.988 12.6666C181.988 12.2066 181.988 11.7452 181.982 11.2852C181.964 10.2787 181.87 9.27493 181.7 8.28223C181.535 7.28899 181.217 6.32633 180.758 5.42725C179.819 3.62287 178.331 2.15411 176.502 1.22755C175.587 0.773424 174.609 0.456434 173.599 0.287053C172.594 0.121727 171.577 0.0330846 170.557 0.0219129C170.094 0.0145929 169.619 0.00580293 169.155 0.00287793C168.609 -0.00012207 168.053 -0.00012207 167.507 -0.00012207V7.29297e-05Z" fill="black"/>
<path d="M12.8434 58.6876C12.38 58.6876 11.9278 58.6818 11.4681 58.6716C10.5157 58.6593 9.56545 58.5776 8.62526 58.4269C7.74858 58.278 6.89932 58.001 6.10548 57.6051C5.31892 57.2124 4.60152 56.6975 3.98075 56.0802C3.351 55.4701 2.8267 54.7625 2.42863 53.9854C2.02618 53.2033 1.74766 52.365 1.60277 51.4996C1.4463 50.5698 1.36165 49.6296 1.34954 48.6871C1.33989 48.3708 1.32727 47.3175 1.32727 47.3175V12.6666C1.32727 12.6666 1.34072 11.6295 1.34961 11.3248C1.36121 10.3838 1.44537 9.4451 1.60137 8.51672C1.74653 7.649 2.02526 6.80824 2.42793 6.02357C2.82454 5.24704 3.34592 4.53891 3.97188 3.92664C4.59714 3.30855 5.31684 2.79103 6.10474 2.39294C6.89675 1.99826 7.74441 1.72322 8.61931 1.57703C9.56259 1.42488 10.5161 1.34262 11.4718 1.33094L12.8442 1.31262H169.147L170.536 1.33167C171.483 1.34277 172.428 1.4243 173.363 1.57556C174.246 1.72358 175.103 2.00055 175.904 2.39733C177.482 3.1996 178.767 4.46887 179.577 6.02723C179.973 6.80649 180.248 7.64038 180.391 8.50061C180.549 9.43661 180.637 10.3827 180.655 11.3314C180.66 11.7562 180.66 12.2125 180.66 12.6666C180.672 13.2291 180.672 13.7645 180.672 14.3043V45.6973C180.672 46.2423 180.672 46.774 180.66 47.3101C180.66 47.7979 180.66 48.2448 180.654 48.7047C180.636 49.6364 180.549 50.5657 180.394 51.4849C180.252 52.3565 179.975 53.2014 179.573 53.9899C179.172 54.7585 178.65 55.46 178.028 56.0685C177.407 56.6891 176.688 57.207 175.9 57.6022C175.101 58.0012 174.245 58.2792 173.363 58.4269C172.423 58.5784 171.472 58.6601 170.52 58.6716C170.074 58.6818 169.608 58.6876 169.155 58.6876L167.506 58.6906L12.8434 58.6876Z" fill="white"/>
<path d="M38.0181 29.8343C38.0351 28.5324 38.3858 27.2558 39.0374 26.1234C39.6891 24.9911 40.6206 24.0396 41.7453 23.3577C41.0308 22.3514 40.0882 21.5232 38.9925 20.939C37.8967 20.3547 36.6779 20.0305 35.4328 19.9921C32.7769 19.7171 30.2022 21.5595 28.8488 21.5595C27.4692 21.5595 25.3854 20.0194 23.1415 20.0649C21.6901 20.1112 20.2756 20.5274 19.0359 21.2731C17.7961 22.0188 16.7733 23.0685 16.0671 24.32C13.0084 29.543 15.29 37.219 18.22 41.441C19.686 43.5083 21.3993 45.8176 23.6412 45.7357C25.835 45.6459 26.6543 44.356 29.3024 44.356C31.9259 44.356 32.6946 45.7357 34.9819 45.6836C37.3359 45.6459 38.8191 43.6071 40.2337 41.5202C41.287 40.0471 42.0975 38.4191 42.6352 36.6963C41.2676 36.1259 40.1005 35.171 39.2794 33.9507C38.4584 32.7304 38.0197 31.2988 38.0181 29.8343Z" fill="black"/>
<path d="M33.6978 17.2155C34.9813 15.6959 35.6136 13.7426 35.4605 11.7706C33.4996 11.9738 31.6883 12.8981 30.3874 14.3594C29.7514 15.0732 29.2642 15.9038 28.9539 16.8034C28.6435 17.7031 28.5159 18.6543 28.5785 19.6026C29.5593 19.6126 30.5296 19.4029 31.4164 18.9894C32.3031 18.5759 33.0832 17.9694 33.6978 17.2155Z" fill="black"/>
<path d="M64.3379 40.7095H57.1387L55.4099 45.7442H52.3606L59.1795 27.1172H62.3476L69.1665 45.7442H66.0653L64.3379 40.7095ZM57.8844 38.3863H63.5909L60.7777 30.2154H60.6989L57.8844 38.3863Z" fill="black"/>
<path d="M83.893 38.9549C83.893 43.1751 81.6027 45.8865 78.1464 45.8865C77.2709 45.9317 76.4002 45.7328 75.6339 45.3126C74.8677 44.8924 74.2369 44.2679 73.8139 43.5105H73.7485V50.2371H70.922V32.1639H73.6579V34.4227H73.7099C74.1524 33.669 74.7938 33.0477 75.5659 32.6249C76.3379 32.2022 77.2118 31.9937 78.0944 32.0218C81.5893 32.0218 83.893 34.7464 83.893 38.9549ZM80.9878 38.9549C80.9878 36.2054 79.547 34.3978 77.3488 34.3978C75.1892 34.3978 73.7366 36.2435 73.7366 38.9549C73.7366 41.6912 75.1892 43.5238 77.3488 43.5238C79.5471 43.5238 80.9877 41.7293 80.9877 38.9549H80.9878Z" fill="black"/>
<path d="M99.0495 38.9549C99.0495 43.1751 96.7585 45.8865 93.3023 45.8865C92.4267 45.9317 91.556 45.7328 90.7898 45.3126C90.0235 44.8924 89.3928 44.2679 88.9697 43.5105H88.9043V50.2371H86.0778V32.1639H88.8137V34.4227H88.8657C89.3082 33.669 89.9496 33.0477 90.7217 32.6249C91.4938 32.2022 92.3676 31.9937 93.2502 32.0218C96.7451 32.0218 99.0495 34.7464 99.0495 38.9549ZM96.1436 38.9549C96.1436 36.2054 94.7029 34.3978 92.5047 34.3978C90.3451 34.3978 88.8925 36.2435 88.8925 38.9549C88.8925 41.6912 90.3451 43.5238 92.5047 43.5238C94.7029 43.5238 96.1436 41.7293 96.1436 38.9549Z" fill="black"/>
<path d="M109.065 40.5544C109.274 42.4016 111.094 43.6144 113.58 43.6144C115.962 43.6144 117.676 42.4015 117.676 40.736C117.676 39.2902 116.643 38.4245 114.195 37.8312L111.747 37.2496C108.279 36.4235 106.669 34.8239 106.669 32.2282C106.669 29.0143 109.509 26.8068 113.54 26.8068C117.532 26.8068 120.268 29.0143 120.36 32.2282H117.507C117.336 30.3693 115.778 29.2472 113.501 29.2472C111.224 29.2472 109.666 30.3825 109.666 32.0348C109.666 33.3517 110.661 34.1266 113.096 34.7198L115.177 35.2237C119.052 36.1275 120.66 37.6627 120.66 40.3873C120.66 43.8721 117.847 46.0548 113.371 46.0548C109.182 46.0548 106.354 43.9234 106.171 40.5543L109.065 40.5544Z" fill="black"/>
<path d="M126.763 28.95V32.1638H129.382V34.3713H126.763V41.8582C126.763 43.0212 127.288 43.5632 128.439 43.5632C128.75 43.5579 129.06 43.5364 129.368 43.4987V45.6931C128.851 45.7884 128.325 45.8316 127.799 45.822C125.011 45.822 123.923 44.7893 123.923 42.1555V34.3713H121.921V32.1638H123.923V28.95H126.763Z" fill="black"/>
<path d="M130.897 38.9547C130.897 34.6818 133.449 31.9967 137.428 31.9967C141.42 31.9967 143.96 34.6817 143.96 38.9547C143.96 43.2394 141.433 45.9127 137.428 45.9127C133.423 45.9127 130.897 43.2394 130.897 38.9547ZM141.08 38.9547C141.08 36.0236 139.718 34.2936 137.428 34.2936C135.137 34.2936 133.775 36.0367 133.775 38.9547C133.775 41.8976 135.137 43.6144 137.428 43.6144C139.718 43.6144 141.08 41.8976 141.08 38.9547H141.08Z" fill="black"/>
<path d="M146.29 32.1639H148.986V34.4754H149.051C149.234 33.7535 149.663 33.1155 150.266 32.6686C150.869 32.2218 151.61 31.9934 152.364 32.0218C152.689 32.0206 153.014 32.0555 153.332 32.1258V34.7332C152.921 34.6093 152.492 34.5524 152.062 34.5647C151.651 34.5483 151.242 34.6197 150.862 34.7741C150.482 34.9284 150.14 35.162 149.861 35.4588C149.581 35.7557 149.369 36.1087 149.241 36.4937C149.113 36.8787 149.07 37.2866 149.117 37.6892V45.7444H146.29L146.29 32.1639Z" fill="black"/>
<path d="M166.364 41.7556C165.984 44.2209 163.549 45.9128 160.435 45.9128C156.429 45.9128 153.942 43.2659 153.942 39.0193C153.942 34.7595 156.442 31.9968 160.316 31.9968C164.125 31.9968 166.521 34.5779 166.521 38.6956V39.6506H156.796V39.8191C156.751 40.3189 156.814 40.8224 156.982 41.2961C157.149 41.7699 157.417 42.2031 157.768 42.5669C158.118 42.9307 158.543 43.2169 159.014 43.4063C159.485 43.5958 159.991 43.6842 160.5 43.6658C161.168 43.7275 161.838 43.5749 162.411 43.2308C162.984 42.8866 163.429 42.3692 163.68 41.7556L166.364 41.7556ZM156.809 37.7024H163.693C163.719 37.253 163.65 36.8033 163.49 36.3815C163.331 35.9597 163.085 35.5748 162.768 35.2512C162.451 34.9275 162.069 34.672 161.647 34.5007C161.225 34.3294 160.772 34.2459 160.316 34.2556C159.855 34.2529 159.399 34.3401 158.973 34.5122C158.547 34.6843 158.16 34.938 157.834 35.2584C157.508 35.5789 157.25 35.9598 157.074 36.3793C156.898 36.7988 156.808 37.2484 156.809 37.7024V37.7024Z" fill="black"/>
<path d="M57.5308 13.0963C58.1234 13.0544 58.718 13.1427 59.2718 13.3548C59.8256 13.567 60.3247 13.8977 60.7332 14.3231C61.1417 14.7486 61.4494 15.2581 61.634 15.815C61.8187 16.3719 61.8757 16.9623 61.801 17.5436C61.801 20.403 60.234 22.0466 57.5308 22.0466H54.2528V13.0963H57.5308ZM55.6623 20.7808H57.3734C57.7968 20.8058 58.2205 20.7373 58.6138 20.5804C59.007 20.4235 59.3598 20.1821 59.6465 19.8737C59.9331 19.5654 60.1465 19.1979 60.271 18.7979C60.3955 18.398 60.428 17.9757 60.3662 17.5618C60.4235 17.1496 60.3877 16.7299 60.2613 16.3329C60.1349 15.9359 59.921 15.5714 59.635 15.2655C59.349 14.9596 58.9979 14.7199 58.6069 14.5636C58.2159 14.4072 57.7946 14.3381 57.3734 14.3612H55.6623V20.7808Z" fill="black"/>
<path d="M63.3931 18.6663C63.3501 18.2224 63.4016 17.7746 63.5443 17.3515C63.687 16.9284 63.9178 16.5394 64.2219 16.2094C64.526 15.8794 64.8967 15.6158 65.3102 15.4354C65.7236 15.2549 66.1708 15.1617 66.6229 15.1617C67.075 15.1617 67.5221 15.2549 67.9356 15.4354C68.3491 15.6158 68.7197 15.8794 69.0238 16.2094C69.3279 16.5394 69.5587 16.9284 69.7015 17.3515C69.8442 17.7746 69.8957 18.2224 69.8526 18.6663C69.8965 19.1106 69.8456 19.5591 69.7033 19.9829C69.5609 20.4067 69.3302 20.7964 69.0261 21.127C68.7219 21.4577 68.351 21.7219 67.9371 21.9027C67.5232 22.0835 67.0755 22.1769 66.6229 22.1769C66.1702 22.1769 65.7226 22.0835 65.3087 21.9027C64.8948 21.7219 64.5239 21.4577 64.2197 21.127C63.9155 20.7964 63.6848 20.4067 63.5425 19.9829C63.4001 19.5591 63.3493 19.1106 63.3931 18.6663ZM68.4624 18.6663C68.4624 17.2022 67.7955 16.346 66.6251 16.346C65.4503 16.346 64.7894 17.2022 64.7894 18.6663C64.7894 20.1422 65.4503 20.9918 66.6251 20.9918C67.7955 20.9917 68.4624 20.1363 68.4624 18.6663H68.4624Z" fill="black"/>
<path d="M78.439 22.0465H77.0369L75.6215 17.0719H75.5145L74.105 22.0465H72.7162L70.8285 15.2921H72.1994L73.4262 20.4461H73.5272L74.9353 15.2921H76.2319L77.64 20.4461H77.7469L78.9678 15.2921H80.3194L78.439 22.0465Z" fill="black"/>
<path d="M81.9071 15.2922H83.2082V16.3652H83.3092C83.4806 15.9798 83.7696 15.6567 84.1359 15.441C84.5023 15.2253 84.9277 15.1277 85.353 15.1618C85.6862 15.1371 86.0208 15.1866 86.332 15.3068C86.6432 15.4269 86.923 15.6146 87.1506 15.8559C87.3783 16.0971 87.548 16.3858 87.6471 16.7005C87.7463 17.0153 87.7724 17.348 87.7235 17.674V22.0465H86.3719V18.0087C86.3719 16.9233 85.8936 16.3835 84.894 16.3835C84.6678 16.3731 84.4419 16.4111 84.232 16.4948C84.022 16.5786 83.8329 16.7061 83.6775 16.8687C83.5222 17.0313 83.4044 17.225 83.3321 17.4367C83.2598 17.6484 83.2348 17.873 83.2587 18.0952V22.0466H81.9071L81.9071 15.2922Z" fill="black"/>
<path d="M89.8772 12.6554H91.2283V22.0465H89.8772V12.6554Z" fill="black"/>
<path d="M93.1077 18.6664C93.0647 18.2225 93.1162 17.7747 93.2589 17.3515C93.4017 16.9284 93.6325 16.5394 93.9367 16.2094C94.2408 15.8794 94.6115 15.6158 95.025 15.4354C95.4385 15.2549 95.8856 15.1617 96.3378 15.1617C96.7899 15.1617 97.2371 15.2549 97.6506 15.4354C98.0641 15.6158 98.4348 15.8794 98.7389 16.2094C99.043 16.5394 99.2739 16.9284 99.4166 17.3515C99.5594 17.7747 99.6109 18.2225 99.5679 18.6664C99.6117 19.1108 99.5608 19.5593 99.4184 19.983C99.276 20.4068 99.0453 20.7966 98.7411 21.1272C98.4369 21.4578 98.0659 21.722 97.652 21.9028C97.2381 22.0836 96.7905 22.177 96.3378 22.177C95.8851 22.177 95.4374 22.0836 95.0235 21.9028C94.6096 21.722 94.2387 21.4578 93.9345 21.1272C93.6303 20.7966 93.3996 20.4068 93.2572 19.983C93.1148 19.5593 93.0639 19.1108 93.1077 18.6664ZM98.1769 18.6664C98.1769 17.2023 97.51 16.3461 96.3396 16.3461C95.1648 16.3461 94.5039 17.2023 94.5039 18.6665C94.5039 20.1423 95.1648 20.9919 96.3396 20.9919C97.51 20.9919 98.1769 20.1364 98.1769 18.6664H98.1769Z" fill="black"/>
<path d="M100.991 20.1363C100.991 18.9205 101.909 18.2196 103.538 18.12L105.393 18.0145V17.4315C105.393 16.7181 104.915 16.3153 103.991 16.3153C103.237 16.3153 102.714 16.5885 102.564 17.066H101.255C101.393 15.9059 102.5 15.1617 104.053 15.1617C105.77 15.1617 106.739 16.0047 106.739 17.4315V22.0465H105.438V21.0973H105.331C105.114 21.4378 104.809 21.7154 104.447 21.9017C104.086 22.088 103.681 22.1764 103.274 22.1578C102.986 22.1873 102.696 22.157 102.421 22.069C102.146 21.9809 101.893 21.837 101.677 21.6466C101.462 21.4561 101.29 21.2233 101.172 20.9632C101.054 20.7031 100.992 20.4214 100.991 20.1363ZM105.393 19.5592V18.9945L103.721 19.1C102.778 19.1622 102.35 19.4786 102.35 20.0741C102.35 20.682 102.884 21.0357 103.62 21.0357C103.835 21.0573 104.053 21.0358 104.26 20.9727C104.467 20.9095 104.658 20.806 104.824 20.6682C104.989 20.5305 105.125 20.3613 105.223 20.1708C105.321 19.9802 105.379 19.7723 105.393 19.5592Z" fill="black"/>
<path d="M108.515 18.6664C108.515 16.5321 109.628 15.1801 111.358 15.1801C111.786 15.1606 112.211 15.2617 112.583 15.4716C112.955 15.6814 113.258 15.9913 113.458 16.3651H113.559V12.6554H114.911V22.0465H113.616V20.9794H113.509C113.293 21.3506 112.979 21.6566 112.6 21.8644C112.221 22.0721 111.791 22.1736 111.358 22.1578C109.616 22.1579 108.515 20.8058 108.515 18.6664ZM109.911 18.6664C109.911 20.099 110.596 20.9611 111.741 20.9611C112.88 20.9611 113.584 20.0866 113.584 18.6723C113.584 17.2645 112.873 16.3776 111.741 16.3776C110.604 16.3776 109.911 17.2455 109.911 18.6664H109.911Z" fill="black"/>
<path d="M120.503 18.6663C120.46 18.2224 120.511 17.7746 120.654 17.3515C120.797 16.9284 121.028 16.5394 121.332 16.2094C121.636 15.8794 122.006 15.6158 122.42 15.4354C122.833 15.2549 123.28 15.1617 123.733 15.1617C124.185 15.1617 124.632 15.2549 125.045 15.4354C125.459 15.6158 125.829 15.8794 126.134 16.2094C126.438 16.5394 126.668 16.9284 126.811 17.3515C126.954 17.7746 127.005 18.2224 126.962 18.6663C127.006 19.1106 126.955 19.5591 126.813 19.9829C126.671 20.4067 126.44 20.7964 126.136 21.127C125.832 21.4577 125.461 21.7219 125.047 21.9027C124.633 22.0835 124.185 22.1769 123.733 22.1769C123.28 22.1769 122.832 22.0835 122.418 21.9027C122.005 21.7219 121.634 21.4577 121.329 21.127C121.025 20.7964 120.795 20.4067 120.652 19.9829C120.51 19.5591 120.459 19.1106 120.503 18.6663ZM125.572 18.6663C125.572 17.2022 124.905 16.346 123.735 16.346C122.56 16.346 121.899 17.2022 121.899 18.6663C121.899 20.1422 122.56 20.9918 123.735 20.9918C124.905 20.9917 125.572 20.1363 125.572 18.6663Z" fill="black"/>
<path d="M128.776 15.2922H130.077V16.3652H130.178C130.349 15.9798 130.638 15.6567 131.005 15.441C131.371 15.2253 131.796 15.1277 132.222 15.1618C132.555 15.1371 132.89 15.1866 133.201 15.3068C133.512 15.4269 133.792 15.6146 134.019 15.8559C134.247 16.0971 134.417 16.3858 134.516 16.7005C134.615 17.0153 134.641 17.348 134.592 17.674V22.0465H133.241V18.0087C133.241 16.9233 132.762 16.3835 131.763 16.3835C131.537 16.3731 131.311 16.4111 131.101 16.4948C130.891 16.5786 130.702 16.7061 130.546 16.8687C130.391 17.0313 130.273 17.225 130.201 17.4367C130.129 17.6484 130.104 17.873 130.127 18.0952V22.0466H128.776V15.2922Z" fill="black"/>
<path d="M142.229 13.6104V15.3228H143.713V16.4456H142.229V19.9187C142.229 20.6262 142.525 20.936 143.198 20.936C143.37 20.9355 143.542 20.9252 143.713 20.9053V22.0156C143.471 22.0584 143.225 22.0812 142.978 22.0837C141.475 22.0837 140.876 21.5622 140.876 20.26V16.4455H139.789V15.3227H140.876V13.6104H142.229Z" fill="black"/>
<path d="M145.56 12.6554H146.899V16.3776H147.006C147.186 15.9886 147.483 15.6637 147.856 15.4472C148.23 15.2307 148.662 15.133 149.094 15.1676C149.426 15.1498 149.757 15.2044 150.065 15.3275C150.373 15.4505 150.649 15.639 150.874 15.8795C151.099 16.1201 151.268 16.4066 151.368 16.7188C151.468 17.031 151.497 17.3612 151.453 17.6857V22.0465H150.1V18.0145C150.1 16.9357 149.591 16.3893 148.636 16.3893C148.403 16.3705 148.17 16.402 147.951 16.4816C147.732 16.5611 147.534 16.6869 147.37 16.85C147.205 17.0131 147.079 17.2096 147 17.4258C146.921 17.642 146.891 17.8727 146.911 18.1017V22.0465H145.56L145.56 12.6554Z" fill="black"/>
<path d="M159.334 20.2229C159.15 20.8402 158.753 21.3742 158.21 21.7314C157.668 22.0886 157.015 22.2463 156.366 22.177C155.915 22.1887 155.467 22.1035 155.052 21.9272C154.638 21.7509 154.267 21.4878 153.966 21.1561C153.665 20.8244 153.441 20.432 153.309 20.0063C153.177 19.5806 153.141 19.1316 153.203 18.6907C153.143 18.2483 153.18 17.7984 153.311 17.3714C153.443 16.9444 153.666 16.5503 153.965 16.2157C154.265 15.8811 154.633 15.6138 155.047 15.432C155.46 15.2502 155.908 15.1581 156.36 15.1619C158.266 15.1619 159.416 16.4459 159.416 18.5669V19.032H154.58V19.1067C154.558 19.3546 154.59 19.6041 154.672 19.8392C154.755 20.0743 154.886 20.2899 155.058 20.4721C155.229 20.6542 155.438 20.799 155.67 20.8971C155.901 20.9952 156.151 21.0445 156.404 21.0417C156.727 21.08 157.054 21.0226 157.345 20.8767C157.635 20.7309 157.874 20.5033 158.033 20.2228L159.334 20.2229ZM154.58 18.0461H158.039C158.056 17.8194 158.025 17.5917 157.947 17.3777C157.87 17.1636 157.748 16.9679 157.589 16.8031C157.43 16.6383 157.238 16.5081 157.025 16.4208C156.812 16.3336 156.583 16.2912 156.353 16.2964C156.119 16.2935 155.887 16.3368 155.671 16.4237C155.454 16.5106 155.258 16.6394 155.092 16.8025C154.927 16.9655 154.796 17.1596 154.708 17.3732C154.62 17.5868 154.577 17.8156 154.58 18.0461H154.58Z" fill="black"/>
</g>
<defs>
<clipPath id="clip0">
<rect width="182" height="60" fill="white"/>
</clipPath>
</defs>
</svg>
