<svg width="200" height="60" viewBox="0 0 200 60" fill="none" xmlns="http://www.w3.org/2000/svg">
<rect width="200" height="60" rx="4" fill="white" fill-opacity="0.05"/>
<rect x="0.5" y="0.5" width="199" height="59" rx="3.5" stroke="white" stroke-opacity="0.1"/>
<path d="M55.4453 35V20.7812H59.6445C60.901 20.7812 62.0143 21.0612 62.9844 21.6211C63.9609 22.181 64.7161 22.9753 65.25 24.0039C65.7839 25.0326 66.0508 26.2109 66.0508 27.5391V28.252C66.0508 29.5996 65.7806 30.7845 65.2402 31.8066C64.7064 32.8288 63.9414 33.6165 62.9453 34.1699C61.9557 34.7233 60.8197 35 59.5371 35H55.4453ZM57.916 22.7734V33.0273H59.5273C60.8229 33.0273 61.8158 32.6237 62.5059 31.8164C63.2025 31.0026 63.5573 29.8372 63.5703 28.3203V27.5293C63.5703 25.9863 63.235 24.8079 62.5645 23.9941C61.8939 23.1803 60.9206 22.7734 59.6445 22.7734H57.916ZM67.8379 29.6191C67.8379 28.584 68.043 27.653 68.4531 26.8262C68.8633 25.9928 69.4395 25.3548 70.1816 24.9121C70.9238 24.4629 71.7767 24.2383 72.7402 24.2383C74.166 24.2383 75.3216 24.6973 76.207 25.6152C77.099 26.5332 77.5807 27.7507 77.6523 29.2676L77.6621 29.8242C77.6621 30.8659 77.4603 31.7969 77.0566 32.6172C76.6595 33.4375 76.0866 34.0723 75.3379 34.5215C74.5957 34.9707 73.7363 35.1953 72.7598 35.1953C71.2689 35.1953 70.0742 34.7005 69.1758 33.7109C68.2839 32.7148 67.8379 31.39 67.8379 29.7363V29.6191ZM70.2109 29.8242C70.2109 30.9115 70.4355 31.7643 70.8848 32.3828C71.334 32.9948 71.959 33.3008 72.7598 33.3008C73.5605 33.3008 74.1823 32.9883 74.625 32.3633C75.0742 31.7383 75.2988 30.8236 75.2988 29.6191C75.2988 28.5514 75.0677 27.7051 74.6055 27.0801C74.1497 26.4551 73.528 26.1426 72.7402 26.1426C71.9655 26.1426 71.3503 26.4518 70.8945 27.0703C70.4388 27.6823 70.2109 28.6003 70.2109 29.8242ZM88.9512 31.7285L90.6309 24.4336H92.9453L90.0645 35H88.1113L85.8457 27.7441L83.6191 35H81.666L78.7754 24.4336H81.0898L82.7988 31.6504L84.9668 24.4336H86.7539L88.9512 31.7285ZM96.7344 24.4336L96.8027 25.6543C97.584 24.7103 98.6094 24.2383 99.8789 24.2383C102.079 24.2383 103.199 25.498 103.238 28.0176V35H100.865V28.1543C100.865 27.4837 100.719 26.9889 100.426 26.6699C100.139 26.3444 99.6673 26.1816 99.0098 26.1816C98.0527 26.1816 97.3398 26.6146 96.8711 27.4805V35H94.498V24.4336H96.7344ZM108.189 35H105.816V20H108.189V35ZM110.338 29.6191C110.338 28.584 110.543 27.653 110.953 26.8262C111.363 25.9928 111.939 25.3548 112.682 24.9121C113.424 24.4629 114.277 24.2383 115.24 24.2383C116.666 24.2383 117.822 24.6973 118.707 25.6152C119.599 26.5332 120.081 27.7507 120.152 29.2676L120.162 29.8242C120.162 30.8659 119.96 31.7969 119.557 32.6172C119.16 33.4375 118.587 34.0723 117.838 34.5215C117.096 34.9707 116.236 35.1953 115.26 35.1953C113.769 35.1953 112.574 34.7005 111.676 33.7109C110.784 32.7148 110.338 31.39 110.338 29.7363V29.6191ZM112.711 29.8242C112.711 30.9115 112.936 31.7643 113.385 32.3828C113.834 32.9948 114.459 33.3008 115.26 33.3008C116.061 33.3008 116.682 32.9883 117.125 32.3633C117.574 31.7383 117.799 30.8236 117.799 29.6191C117.799 28.5514 117.568 27.7051 117.105 27.0801C116.65 26.4551 116.028 26.1426 115.24 26.1426C114.465 26.1426 113.85 26.4518 113.395 27.0703C112.939 27.6823 112.711 28.6003 112.711 29.8242ZM128.482 35C128.378 34.7982 128.287 34.4694 128.209 34.0137C127.454 34.8014 126.529 35.1953 125.436 35.1953C124.374 35.1953 123.508 34.8926 122.838 34.2871C122.167 33.6816 121.832 32.9329 121.832 32.041C121.832 30.9147 122.249 30.0521 123.082 29.4531C123.922 28.8477 125.12 28.5449 126.676 28.5449H128.131V27.8516C128.131 27.3047 127.978 26.8685 127.672 26.543C127.366 26.2109 126.9 26.0449 126.275 26.0449C125.735 26.0449 125.292 26.1816 124.947 26.4551C124.602 26.722 124.43 27.0638 124.43 27.4805H122.057C122.057 26.901 122.249 26.3607 122.633 25.8594C123.017 25.3516 123.538 24.9544 124.195 24.668C124.859 24.3815 125.598 24.2383 126.412 24.2383C127.649 24.2383 128.635 24.5508 129.371 25.1758C130.107 25.7943 130.484 26.6667 130.504 27.793V32.5586C130.504 33.5091 130.637 34.2676 130.904 34.834V35H128.482ZM125.875 33.291C126.344 33.291 126.783 33.1771 127.193 32.9492C127.61 32.7214 127.923 32.4154 128.131 32.0312V30.0391H126.852C125.973 30.0391 125.312 30.1921 124.869 30.498C124.426 30.804 124.205 31.237 124.205 31.7969C124.205 32.2526 124.355 32.6172 124.654 32.8906C124.96 33.1576 125.367 33.291 125.875 33.291ZM132.545 29.6387C132.545 28.0111 132.923 26.7057 133.678 25.7227C134.433 24.7331 135.445 24.2383 136.715 24.2383C137.835 24.2383 138.74 24.6289 139.43 25.4102V20H141.803V35H139.654L139.537 33.9062C138.827 34.7656 137.88 35.1953 136.695 35.1953C135.458 35.1953 134.456 34.6973 133.688 33.7012C132.926 32.7051 132.545 31.3509 132.545 29.6387ZM134.918 29.8438C134.918 30.918 135.123 31.7578 135.533 32.3633C135.95 32.9622 136.539 33.2617 137.301 33.2617C138.271 33.2617 138.98 32.8288 139.43 31.9629V27.4512C138.993 26.6048 138.29 26.1816 137.32 26.1816C136.552 26.1816 135.96 26.4876 135.543 27.0996C135.126 27.7051 134.918 28.6198 134.918 29.8438ZM155.572 35C155.468 34.7982 155.377 34.4694 155.299 34.0137C154.544 34.8014 153.619 35.1953 152.525 35.1953C151.464 35.1953 150.598 34.8926 149.928 34.2871C149.257 33.6816 148.922 32.9329 148.922 32.041C148.922 30.9147 149.339 30.0521 150.172 29.4531C151.012 28.8477 152.21 28.5449 153.766 28.5449H155.221V27.8516C155.221 27.3047 155.068 26.8685 154.762 26.543C154.456 26.2109 153.99 26.0449 153.365 26.0449C152.825 26.0449 152.382 26.1816 152.037 26.4551C151.692 26.722 151.52 27.0638 151.52 27.4805H149.146C149.146 26.901 149.339 26.3607 149.723 25.8594C150.107 25.3516 150.628 24.9544 151.285 24.668C151.949 24.3815 152.688 24.2383 153.502 24.2383C154.739 24.2383 155.725 24.5508 156.461 25.1758C157.197 25.7943 157.574 26.6667 157.594 27.793V32.5586C157.594 33.5091 157.727 34.2676 157.994 34.834V35H155.572ZM152.965 33.291C153.434 33.291 153.873 33.1771 154.283 32.9492C154.7 32.7214 155.012 32.4154 155.221 32.0312V30.0391H153.941C153.062 30.0391 152.402 30.1921 151.959 30.498C151.516 30.804 151.295 31.237 151.295 31.7969C151.295 32.2526 151.445 32.6172 151.744 32.8906C152.05 33.1576 152.457 33.291 152.965 33.291ZM169.332 29.8242C169.332 31.4583 168.961 32.7637 168.219 33.7402C167.477 34.7103 166.48 35.1953 165.23 35.1953C164.072 35.1953 163.144 34.8145 162.447 34.0527V39.0625H160.074V24.4336H162.262L162.359 25.5078C163.056 24.6615 164.003 24.2383 165.201 24.2383C166.49 24.2383 167.499 24.7201 168.229 25.6836C168.964 26.6406 169.332 27.972 169.332 29.6777V29.8242ZM166.969 29.6191C166.969 28.5645 166.757 27.7279 166.334 27.1094C165.917 26.4909 165.318 26.1816 164.537 26.1816C163.567 26.1816 162.87 26.582 162.447 27.3828V32.0703C162.877 32.8906 163.58 33.3008 164.557 33.3008C165.312 33.3008 165.901 32.998 166.324 32.3926C166.754 31.7806 166.969 30.8561 166.969 29.6191ZM174.781 30.4688L173.727 31.5527V35H171.354V20H173.727V28.6523L174.469 27.7246L177.389 24.4336H180.24L176.314 28.8379L180.66 35H177.916L174.781 30.4688Z" fill="white"/>
<path d="M37.1651 19.8356H35.9985V18.6691H37.1651V19.8356ZM31.3324 19.8356H30.1658V18.6691H31.3324V19.8356ZM37.7834 16.5227L39.3115 14.9945C39.5332 14.7728 39.5332 14.3995 39.3115 14.1662C39.0782 13.9446 38.7049 13.9446 38.4833 14.1662L36.7568 15.8927C35.8236 15.4378 34.7737 15.1695 33.6655 15.1695C32.5456 15.1695 31.4957 15.4378 30.5624 15.9044L28.8243 14.1662C28.6026 13.9446 28.2294 13.9446 28.0077 14.1662C27.7744 14.3995 27.7744 14.7728 28.0077 14.9945L29.5359 16.5227C27.7977 17.8059 26.6662 19.8356 26.6662 22.1687H40.6647C40.6647 19.8356 39.4982 17.7942 37.7834 16.5227ZM43.5811 23.3353C42.6129 23.3353 41.8313 24.1169 41.8313 25.0851V33.2509C41.8313 34.2191 42.6129 35.0007 43.5811 35.0007C44.5493 35.0007 45.3309 34.2191 45.3309 33.2509V25.0851C45.3309 24.1169 44.5493 23.3353 43.5811 23.3353ZM23.7498 23.3353C22.7816 23.3353 22 24.1169 22 25.0851V33.2509C22 34.2191 22.7816 35.0007 23.7498 35.0007C24.7181 35.0007 25.4996 34.2191 25.4996 33.2509V25.0851C25.4996 24.1169 24.7181 23.3353 23.7498 23.3353ZM26.6662 35.0007C26.6662 35.6423 27.1911 36.1673 27.8327 36.1673H28.9993V40.2502C28.9993 41.2184 29.7809 42 30.7491 42C31.7173 42 32.4989 41.2184 32.4989 40.2502V36.1673H34.832V40.2502C34.832 41.2184 35.6136 42 36.5818 42C37.55 42 38.3316 41.2184 38.3316 40.2502V36.1673H39.4982C40.1398 36.1673 40.6647 35.6423 40.6647 35.0007V23.3353H26.6662V35.0007Z" fill="white"/>
</svg>
